<svg width="144" height="145" viewBox="0 0 144 145" fill="none" xmlns="http://www.w3.org/2000/svg">
<rect y="0.5" width="144" height="144" rx="10" fill="#F94B60"/>
<path fill-rule="evenodd" clip-rule="evenodd" d="M63.5125 34.0408C66.203 33.0235 69.0868 32.5 71.9991 32.5C74.9113 32.5 77.7951 33.0235 80.4857 34.0408C83.1762 35.058 85.621 36.5489 87.6803 38.4284C89.7395 40.308 91.3731 42.5393 92.4875 44.9951C93.602 47.4508 94.1756 50.0829 94.1756 52.741C94.1756 54.3379 92.7572 55.6325 91.0075 55.6325C89.2579 55.6325 87.8395 54.3379 87.8395 52.741C87.8395 50.8423 87.4297 48.9623 86.6337 47.2082C85.8376 45.4541 84.6708 43.8603 83.1999 42.5177C81.729 41.1752 79.9828 40.1102 78.0609 39.3837C76.1391 38.6571 74.0793 38.2831 71.9991 38.2831C69.9189 38.2831 67.8591 38.6571 65.9372 39.3837C64.0154 40.1102 62.2691 41.1752 60.7982 42.5177C59.3273 43.8603 58.1605 45.4541 57.3644 47.2082C56.5684 48.9623 56.1587 50.8423 56.1587 52.741C56.1587 54.3379 54.7403 55.6325 52.9906 55.6325C51.2409 55.6325 49.8225 54.3379 49.8225 52.741C49.8225 50.0829 50.3961 47.4508 51.5106 44.9951C52.6251 42.5393 54.2586 40.308 56.3179 38.4284C58.3772 36.5489 60.8219 35.058 63.5125 34.0408Z" fill="white"/>
<path fill-rule="evenodd" clip-rule="evenodd" d="M90.877 56.5964H53.123C47.7972 56.5964 43.3049 60.216 42.6443 65.0394L38.4202 95.8828C37.6323 101.636 42.5469 106.717 48.8989 106.717H95.1011C101.453 106.717 106.368 101.636 105.58 95.8828L101.356 65.0394C100.695 60.216 96.2028 56.5964 90.877 56.5964ZM53.123 50.8132C44.6018 50.8132 37.414 56.6047 36.3571 64.3221L32.133 95.1655C30.8724 104.37 38.7357 112.5 48.8989 112.5H95.1011C105.264 112.5 113.128 104.37 111.867 95.1655L107.643 64.3221C106.586 56.6047 99.3982 50.8132 90.877 50.8132H53.123Z" fill="white"/>
<path fill-rule="evenodd" clip-rule="evenodd" d="M58.2727 89.3675C58.2727 87.7705 59.6911 86.4759 61.4408 86.4759H82.5613C84.311 86.4759 85.7294 87.7705 85.7294 89.3675C85.7294 90.9644 84.311 92.259 82.5613 92.259H61.4408C59.6911 92.259 58.2727 90.9644 58.2727 89.3675Z" fill="white"/>
</svg>
