<svg width="23" height="26" viewBox="0 0 23 26" fill="none" xmlns="http://www.w3.org/2000/svg">
<path fill-rule="evenodd" clip-rule="evenodd" d="M15.0938 6.06125C15.0938 5.10813 14.7151 4.19404 14.0412 3.52008C13.3672 2.84612 12.4531 2.4675 11.5 2.4675C10.5469 2.4675 9.63279 2.84612 8.95884 3.52008C8.28488 4.19404 7.90625 5.10813 7.90625 6.06125V6.78H15.0938V6.06125ZM16.5312 6.06125V6.78H21.5625V21.155C21.5625 21.9175 21.2596 22.6488 20.7204 23.1879C20.1813 23.7271 19.45 24.03 18.6875 24.03H4.3125C3.55 24.03 2.81874 23.7271 2.27957 23.1879C1.7404 22.6488 1.4375 21.9175 1.4375 21.155V6.78H6.46875V6.06125C6.46875 4.72688 6.99883 3.44716 7.94237 2.50362C8.88591 1.56008 10.1656 1.03 11.5 1.03C12.8344 1.03 14.1141 1.56008 15.0576 2.50362C16.0012 3.44716 16.5312 4.72688 16.5312 6.06125ZM8.625 14.6862C8.43438 14.6862 8.25156 14.762 8.11677 14.8968C7.98198 15.0316 7.90625 15.2144 7.90625 15.405C7.90625 15.5956 7.98198 15.7784 8.11677 15.9132C8.25156 16.048 8.43438 16.1237 8.625 16.1237H14.375C14.5656 16.1237 14.7484 16.048 14.8832 15.9132C15.018 15.7784 15.0938 15.5956 15.0938 15.405C15.0938 15.2144 15.018 15.0316 14.8832 14.8968C14.7484 14.762 14.5656 14.6862 14.375 14.6862H8.625Z" fill="white"/>
</svg>
